<svg xmlns="http://www.w3.org/2000/svg" xmlns:xlink="http://www.w3.org/1999/xlink" version="1.1" x="0px" y="0px" viewBox="0 0 32 40" style="enable-background:new 0 0 32 32;" xml:space="preserve"><path d="M16.579,14.347l4.769-1.391c-0.603,0.093-1.371,0.19-2.143,0.233c-1.616,0.089-2.37,0.632-2.626,0.869V14.347z"/><polygon points="20.461,14.42 18.067,15.119 21.081,16 "/><path d="M14.023,7.785c-0.837,0.067-1.597,0.097-2.032,0.111l-1.601,3.846c0.606,0.103,1.536,0.24,2.47,0.292  c1.172,0.064,1.998,0.335,2.562,0.627V8.344C15.32,8.165,14.972,7.725,14.023,7.785z"/><path d="M16.579,8.347v4.314c0.564-0.293,1.39-0.563,2.562-0.627c0.933-0.052,1.864-0.189,2.469-0.292l-1.601-3.846  c-0.435-0.014-1.195-0.044-2.032-0.111C17.05,7.727,16.687,8.159,16.579,8.347z"/><path d="M10.653,12.955l4.769,1.391v-0.292c-0.249-0.231-1.002-0.778-2.625-0.867C12.024,13.145,11.256,13.048,10.653,12.955z"/><polygon points="11.539,14.42 10.919,16 13.936,15.12 "/><path d="M22.732,4.582l-1.767,1.767c-0.195,0.195-0.195,0.512,0,0.707c0.098,0.098,0.226,0.146,0.354,0.146s0.256-0.049,0.354-0.146  l1.767-1.767c0.195-0.195,0.195-0.512,0-0.707S22.928,4.387,22.732,4.582z"/><path d="M10.327,16.987l-1.767,1.767c-0.195,0.195-0.195,0.512,0,0.707c0.098,0.098,0.226,0.146,0.354,0.146  s0.256-0.049,0.354-0.146l1.767-1.767c0.195-0.195,0.195-0.512,0-0.707S10.522,16.792,10.327,16.987z"/><path d="M22.732,19.461c0.098,0.098,0.226,0.146,0.354,0.146s0.256-0.049,0.354-0.146c0.195-0.195,0.195-0.512,0-0.707l-1.767-1.767  c-0.195-0.195-0.512-0.195-0.707,0s-0.195,0.512,0,0.707L22.732,19.461z"/><path d="M8.561,4.582c-0.195,0.195-0.195,0.512,0,0.707l1.767,1.767c0.098,0.098,0.226,0.146,0.354,0.146s0.256-0.049,0.354-0.146  c0.195-0.195,0.195-0.512,0-0.707L9.268,4.582C9.072,4.387,8.756,4.387,8.561,4.582z"/><path d="M18.879,5.571c0.196,0,0.382-0.116,0.462-0.309l0.446-1.078c0.105-0.255-0.016-0.548-0.271-0.653  c-0.253-0.108-0.547,0.016-0.653,0.271L18.417,4.88c-0.105,0.255,0.016,0.548,0.271,0.653C18.75,5.56,18.815,5.571,18.879,5.571z"/><path d="M12.659,18.779l-0.446,1.078c-0.105,0.255,0.016,0.548,0.271,0.653c0.063,0.026,0.127,0.038,0.191,0.038  c0.196,0,0.382-0.116,0.462-0.309l0.446-1.078c0.105-0.255-0.016-0.548-0.271-0.653C13.059,18.402,12.765,18.524,12.659,18.779z"/><path d="M24.028,15.847c0.196,0,0.382-0.116,0.462-0.309c0.105-0.255-0.016-0.548-0.271-0.653l-1.078-0.446  c-0.253-0.106-0.548,0.016-0.653,0.271s0.016,0.548,0.271,0.653l1.078,0.446C23.899,15.835,23.964,15.847,24.028,15.847z"/><path d="M7.51,8.505C7.405,8.76,7.526,9.053,7.781,9.158l1.078,0.446C8.921,9.631,8.986,9.643,9.05,9.643  c0.196,0,0.382-0.116,0.462-0.309c0.105-0.255-0.016-0.548-0.271-0.653L8.164,8.234C7.91,8.128,7.616,8.25,7.51,8.505z"/><path d="M23.836,8.234l-1.078,0.446c-0.255,0.105-0.376,0.398-0.271,0.653c0.08,0.192,0.266,0.309,0.462,0.309  c0.064,0,0.129-0.012,0.191-0.038l1.078-0.446c0.255-0.105,0.376-0.398,0.271-0.653C24.384,8.25,24.092,8.128,23.836,8.234z"/><path d="M7.972,15.847c0.064,0,0.129-0.012,0.191-0.038l1.078-0.446c0.255-0.105,0.376-0.398,0.271-0.653  c-0.105-0.255-0.398-0.377-0.653-0.271l-1.078,0.446c-0.255,0.105-0.376,0.398-0.271,0.653C7.59,15.73,7.776,15.847,7.972,15.847z"/><path d="M18.688,18.509c-0.255,0.105-0.376,0.398-0.271,0.653l0.446,1.078c0.08,0.192,0.266,0.309,0.462,0.309  c0.064,0,0.129-0.012,0.191-0.038c0.255-0.105,0.376-0.398,0.271-0.653l-0.446-1.078C19.235,18.524,18.942,18.402,18.688,18.509z"/><path d="M12.483,3.531c-0.255,0.105-0.376,0.398-0.271,0.653l0.446,1.078c0.08,0.192,0.266,0.309,0.462,0.309  c0.064,0,0.129-0.012,0.191-0.038c0.255-0.105,0.376-0.398,0.271-0.653l-0.446-1.078C13.031,3.547,12.738,3.425,12.483,3.531z"/><path d="M26.521,12.021c0-0.276-0.224-0.5-0.5-0.5h-2.499c-0.276,0-0.5,0.224-0.5,0.5s0.224,0.5,0.5,0.5h2.499  C26.298,12.521,26.521,12.298,26.521,12.021z"/><path d="M8.978,12.021c0-0.276-0.224-0.5-0.5-0.5H5.979c-0.276,0-0.5,0.224-0.5,0.5s0.224,0.5,0.5,0.5h2.499  C8.754,12.521,8.978,12.298,8.978,12.021z"/><path d="M16,19.044c-0.276,0-0.5,0.224-0.5,0.5v2.499c0,0.276,0.224,0.5,0.5,0.5s0.5-0.224,0.5-0.5v-2.499  C16.5,19.268,16.276,19.044,16,19.044z"/><path d="M16,1.5c-0.14,0-0.266,0.058-0.357,0.151C15.555,1.742,15.5,1.864,15.5,2v2.499c0,0.276,0.224,0.5,0.5,0.5  s0.5-0.224,0.5-0.5V2c0-0.136-0.055-0.258-0.143-0.349C16.266,1.558,16.14,1.5,16,1.5z"/><path d="M13.177,23.143l-3.942-1.109c-0.245-0.067-0.473,0.053-0.512,0.334c-0.024,0.177,0.066,0.347,0.227,0.422l3.594,1.712  c0.305,0.145,0.435,0.51,0.29,0.815c-0.145,0.305-0.51,0.435-0.816,0.289l-3.593-1.711c-0.646-0.305-1.013-0.987-0.914-1.697  c0.035-0.253,0.13-0.492,0.273-0.699l-3.134-3.157c-0.118-0.12-0.301-0.151-0.451-0.078c-0.234,0.114-0.292,0.325-0.169,0.555  l3.683,6.283l4.576,2.278c0.208,0.103,0.339,0.316,0.339,0.547V30.5H15.2v-4.687C15.2,24.576,14.368,23.477,13.177,23.143z"/><path d="M27.799,18.262c-0.151-0.071-0.331-0.041-0.45,0.079l-3.133,3.157c0.143,0.207,0.237,0.445,0.273,0.699  c0.099,0.71-0.268,1.393-0.915,1.699l-3.592,1.709c-0.307,0.146-0.671,0.016-0.816-0.289c-0.145-0.305-0.016-0.671,0.29-0.815  l3.593-1.711c0.161-0.077,0.252-0.246,0.228-0.423c-0.039-0.284-0.27-0.397-0.512-0.334l-3.943,1.109  c-1.191,0.335-2.023,1.433-2.023,2.67V30.5h2.572v-2.574c0-0.232,0.131-0.445,0.339-0.547l4.576-2.278l3.683-6.283  C28.092,18.587,28.041,18.374,27.799,18.262z"/><text x="0" y="47" fill="#000000" font-size="5px" font-weight="bold" font-family="'Helvetica Neue', Helvetica, Arial-Unicode, Arial, Sans-serif">Created by Athok</text><text x="0" y="52" fill="#000000" font-size="5px" font-weight="bold" font-family="'Helvetica Neue', Helvetica, Arial-Unicode, Arial, Sans-serif">from the Noun Project</text></svg>